PathFileType	4	(X/Y/Z)	./resultDataOpenSim/trcMotMarkerGrf/sub09/qtm-13-06.trc
DataRate	CameraRate	NumFrames	NumMarkers	Units	OrigDataRate	OrigDataStartFrame	OrigNumFrames
250.000000	250.000000	9	24	m	250.000000	180	478
Frame#	Time	L.Toe.Tip			R.Toe.Tip			L.Ankle.Lat			R.Ankle.Lat			L.Ankle.Med			R.Ankle.Med			L.Heel			R.Heel			L.Knee.Lat			R.Knee.Lat			L.Knee.Med			R.Knee.Med			L.Thigh.Upper			R.Thigh.Upper			L.ASIS			R.ASIS			V.Sacral			L.Acromium			R.Acromium			C7			L.Elbow			R.Elbow			L.Wrist.Lat			R.Wrist.Lat
		X1	Y1	Z1	X2	Y2	Z2	X3	Y3	Z3	X4	Y4	Z4	X5	Y5	Z5	X6	Y6	Z6	X7	Y7	Z7	X8	Y8	Z8	X9	Y9	Z9	X10	Y10	Z10	X11	Y11	Z11	X12	Y12	Z12	X13	Y13	Z13	X14	Y14	Z14	X15	Y15	Z15	X16	Y16	Z16	X17	Y17	Z17	X18	Y18	Z18	X19	Y19	Z19	X20	Y20	Z20	X21	Y21	Z21	X22	Y22	Z22	X23	Y23	Z23	X24	Y24	Z24

180	0.716	0.18283752	-0.0094286757	0.0036614338	-0.58378052	0.065834429	0.11425879	0.038915792	0.02311311	-0.051110376	-0.63450365	0.21161087	0.13408689	0.047515138	0.042919773	0.046261462	-0.58021589	0.20517835	0.050906978	-0.036915947	-0.012951211	-0.014781274	-0.67334691	0.25048977	0.070833805	0.090894689	0.4358782	-0.10053184	-0.22970394	0.41288069	0.2127538	0.081344608	0.4401451	0.025138279	-0.21849377	0.38293116	0.088528537	-0.10903513	0.80695919	-0.15074511	-0.17151379	0.80196156	0.21911604	-0.046175182	0.89370526	-0.078257502	-0.059273871	0.88300989	0.16176312	-0.21919219	0.94164373	0.026602167	-0.072216559	1.3372351	-0.14063266	-0.097656244	1.3561379	0.19209146	-0.15046439	1.395635	0.022096805	-0.24231371	1.0158672	-0.18465099	-0.20855402	1.0018004	0.29032363	-0.17176921	0.7701765	-0.24564115	0.016635717	0.83804255	0.28427068
181	0.72	0.18274277	-0.0095401294	0.0037556956	-0.57673653	0.068953766	0.11500077	0.039123645	0.022751883	-0.051193812	-0.62292978	0.21679878	0.13416448	0.047509765	0.042812292	0.046221352	-0.56871751	0.20947094	0.051019955	-0.037029545	-0.012941092	-0.014925918	-0.66101336	0.25741606	0.071656485	0.095073945	0.43407914	-0.10110397	-0.21627872	0.41083854	0.21294098	0.086913818	0.43816882	0.024408298	-0.20463086	0.38115195	0.088370327	-0.10265771	0.80717919	-0.15119281	-0.16321389	0.80135516	0.21793878	-0.039400523	0.89436491	-0.079073306	-0.052648355	0.88292518	0.16106498	-0.21171659	0.94137092	0.027373905	-0.064327933	1.3372091	-0.14082605	-0.090139101	1.3562136	0.19183355	-0.14319289	1.3956317	0.021718614	-0.23377803	1.0156348	-0.18513616	-0.20294154	1.0024296	0.28927476	-0.16267943	0.7699343	-0.24601708	0.020446417	0.83662546	0.28432026
182	0.724	0.18274445	-0.0096300988	0.0038030377	-0.56859726	0.072395885	0.11581204	0.039476925	0.022459972	-0.051235014	-0.61097603	0.22182859	0.13424484	0.047726521	0.042737645	0.046211093	-0.55691501	0.21381985	0.051074218	-0.037050429	-0.012841991	-0.014978893	-0.64820672	0.2638791	0.072244789	0.099056611	0.43219736	-0.10142726	-0.20297795	0.40872761	0.21283167	0.092238579	0.43605005	0.023742926	-0.19110076	0.37976666	0.088218259	-0.096144017	0.80735207	-0.15150596	-0.15576348	0.80079647	0.2172152	-0.032700912	0.8949921	-0.079826674	-0.046136311	0.88292328	0.16047997	-0.20497153	0.94110747	0.028101968	-0.056446273	1.337253	-0.14099267	-0.0825838	1.3563387	0.19161365	-0.13595463	1.3957316	0.021353454	-0.22525486	1.0154529	-0.18559339	-0.19742468	1.0031172	0.28836643	-0.15347629	0.76976499	-0.24634887	0.024345709	0.83522384	0.28433232
183	0.728	0.18283743	-0.0097062802	0.0037993248	-0.55933556	0.076220413	0.11661736	0.039933508	0.022224989	-0.05123502	-0.59870284	0.22675804	0.13434658	0.048128987	0.042672831	0.046237007	-0.54484544	0.21816195	0.051102771	-0.036988444	-0.012670153	-0.014951142	-0.63502695	0.26978386	0.072522916	0.10269365	0.43046369	-0.10157478	-0.18995107	0.40685401	0.21252053	0.097284274	0.43394758	0.023184812	-0.17790694	0.37876379	0.088140151	-0.08955493	0.80751003	-0.15178133	-0.14894027	0.80025041	0.21685086	-0.026083107	0.8955595	-0.080516852	-0.0397603	0.88300232	0.15999294	-0.19899582	0.94081553	0.027998508	-0.048570206	1.3373595	-0.14112742	-0.075049549	1.3565144	0.19142079	-0.12874157	1.3959419	0.02099964	-0.21675748	1.015315	-0.18603764	-0.19190059	1.003846	0.28753759	-0.14418157	0.76966516	-0.24663222	0.028273488	0.83383387	0.28432221
184	0.732	0.18297203	-0.0097760015	0.0037569521	-0.54903572	0.080389573	0.11736912	0.040392668	0.022021842	-0.051217323	-0.58611803	0.23163615	0.13449555	0.048613111	0.042598514	0.046290322	-0.53256119	0.22245408	0.051165319	-0.03689364	-0.012470424	-0.014868245	-0.62175089	0.27519341	0.072602788	0.10598397	0.42898743	-0.10163817	-0.17732959	0.40559829	0.21215431	0.10193058	0.43198585	0.022734604	-0.16491517	0.37811647	0.088102699	-0.082949329	0.80768291	-0.15208223	-0.14241445	0.7997401	0.21665317	-0.019524023	0.89606502	-0.081131077	-0.03352852	0.88316934	0.1595871	-0.19338071	0.94062216	0.026773249	-0.040701214	1.3375244	-0.14123117	-0.067586981	1.3567427	0.191242	-0.12153892	1.3962596	0.020648649	-0.20829785	1.015222	-0.18648995	-0.18624446	1.004611	0.28674872	-0.13481574	0.76963388	-0.24685697	0.032166654	0.83246836	0.28431292
185	0.736	0.18308748	-0.0098399605	0.0037001156	-0.53783474	0.084783247	0.118068	0.040763902	0.021845946	-0.051212929	-0.5732293	0.23647023	0.13472499	0.049049183	0.042511368	0.046357378	-0.520102	0.22665944	0.051316153	-0.036821942	-0.01229103	-0.014759743	-0.60852884	0.28023324	0.072637829	0.10917279	0.42772715	-0.1016972	-0.16507265	0.40505252	0.21184182	0.10605655	0.43028021	0.022382869	-0.15183436	0.37776865	0.087971682	-0.076350815	0.80789136	-0.15242639	-0.13601128	0.79931148	0.21649318	-0.012995052	0.89652187	-0.081661242	-0.027427001	0.88344047	0.15925201	-0.18755605	0.94071681	0.025040304	-0.032835867	1.3377498	-0.14130059	-0.060226222	1.3570268	0.19106989	-0.11433975	1.3966715	0.020293723	-0.19987852	1.0151803	-0.18696958	-0.18045594	1.0054242	0.28606522	-0.12538442	0.76967502	-0.2470158	0.036005763	0.83114577	0.28431864
186	0.74	0.18314489	-0.009894833	0.0036560655	-0.52584294	0.089279233	0.11873299	0.041018907	0.021707027	-0.051234682	-0.56006158	0.24122376	0.13504364	0.049350414	0.042420229	0.046426137	-0.50745685	0.23075692	0.051525677	-0.036805459	-0.012160393	-0.014654605	-0.59528029	0.28501744	0.07271125	0.1124924	0.42661845	-0.10179207	-0.15281252	0.4049607	0.21160037	0.10960382	0.42892439	0.022134765	-0.13842843	0.37768947	0.087630001	-0.06973055	0.80814137	-0.15280361	-0.12967203	0.79899853	0.21631493	-0.0064972691	0.89694407	-0.082121031	-0.021434861	0.88383	0.1589759	-0.18125399	0.94117042	0.023547304	-0.024967855	1.338042	-0.14132605	-0.052987114	1.3573755	0.19091035	-0.10714723	1.3971707	0.019938324	-0.19149506	1.0152008	-0.18749321	-0.17464681	1.0062977	0.28556385	-0.11587567	0.7697954	-0.24711536	0.039796088	0.82987914	0.28434297
187	0.744	0.18313892	-0.0099389771	0.0036428287	-0.5131227	0.093795849	0.11938196	0.041179561	0.021601399	-0.051274131	-0.54663174	0.24583096	0.13538924	0.049506859	0.042333299	0.046487899	-0.49454249	0.23474045	0.051672929	-0.036843277	-0.012080239	-0.014576854	-0.58184878	0.28961106	0.07282813	0.11601467	0.42565536	-0.10194326	-0.13976273	0.40500815	0.21137999	0.11260561	0.4279602	0.022012111	-0.12470105	0.37789608	0.087065172	-0.063047605	0.80842201	-0.15319716	-0.12336932	0.79882215	0.21610208	-5.8560724e-05	0.89734439	-0.082539941	-0.015534718	0.8843444	0.15873804	-0.17464772	0.94189869	0.022488096	-0.017098909	1.3384062	-0.14130156	-0.045888255	1.3577995	0.19077826	-0.099970928	1.3977645	0.019594206	-0.18314413	1.0152968	-0.18807202	-0.16892107	1.0072308	0.2852776	-0.1062764	0.77000215	-0.24717034	0.043545611	0.82867249	0.28438556
188	0.748	0.18308845	-0.0099742646	0.0036613755	-0.49973445	0.098266207	0.12003611	0.041284733	0.021510344	-0.051320612	-0.53291657	0.25021281	0.13561121	0.049561706	0.042251847	0.046537602	-0.48124963	0.23858609	0.051663437	-0.036913275	-0.012033984	-0.014540683	-0.56816524	0.29400414	0.072963055	0.11972837	0.42486778	-0.10220111	-0.12503675	0.40504386	0.21110286	0.1151693	0.42735854	0.022028518	-0.11084468	0.3784106	0.086329133	-0.056306577	0.80871907	-0.15359882	-0.11707967	0.79880413	0.21585149	0.0062883451	0.89773829	-0.082940875	-0.0097096437	0.88498451	0.15851488	-0.16809818	0.94278158	0.021681882	-0.0092408936	1.3388423	-0.14122722	-0.038944227	1.3583064	0.1906857	-0.092822867	1.3984606	0.01927478	-0.17482709	1.0154786	-0.18870779	-0.16330405	1.0082119	0.28522681	-0.096586183	0.77029972	-0.24718779	0.047260363	0.82752851	0.28444842
